# xmcd CD database file
#
# Track frame offsets:
#	150
#	21818
#	39281
#	57069
#	72586
#	87602
#	102693
#	117167
#	134088
#	152615
#	164767
#	183833
#
# Disc length: 2738 seconds
#
# Revision: 3
# Processed by: cddbd v1.4PL0 Copyright (c) Steve Scherf et al.
# Submitted via: CDex 1.51
#
DISCID=a90ab00c
DTITLE=Chris Isaak - Wicked Game
DYEAR=1991
DGENRE=Blues
TTITLE0=Wicked Game
TTITLE1=You owe me some kind of love
TTITLE2=Blue spanish sky
TTITLE3=Heart shaped world
TTITLE4=Heart full of soul
TTITLE5=Funeral in the rain
TTITLE6=Blue hotel
TTITLE7=Dancin'
TTITLE8=Nothing's changed
TTITLE9=Voodoo
TTITLE10=Lie to me
TTITLE11=Wicked Game (instrumental)
EXTD=YEAR: 1991
EXTT0=
EXTT1=
EXTT2=
EXTT3=
EXTT4=
EXTT5=
EXTT6=
EXTT7=
EXTT8=
EXTT9=
EXTT10=
EXTT11=
PLAYORDER=
